<svg width="291" height="250" viewBox="0 0 291 250" fill="none" xmlns="http://www.w3.org/2000/svg">
<g filter="url(#filter0_f_579_2995)">
<path d="M97.9781 10.2196C97.6516 10.0491 97.2928 9.86171 96.9295 9.65773C96.65 9.56181 96.3696 9.46313 96.0888 9.36433C94.3524 8.75331 92.602 8.13733 90.9682 8.13492C90.965 8.13492 90.9618 8.13492 90.9586 8.13492L8.6646 9.04768C7.32991 9.6465 6.13555 10.6952 5.25558 12.1092C4.31186 13.6257 3.79145 15.4667 3.79166 17.374C3.79166 65.8552 18.6081 103.818 35.375 131.814C39.3771 138.496 46.8563 144.873 56.7108 150.722C66.5335 156.553 78.5586 161.767 91.4531 166.192C117.251 175.044 146.32 180.666 167.761 181.797L169.459 181.886V183.586V237.305C169.459 239.098 169.919 240.836 170.763 242.301C171.607 243.766 172.784 244.875 174.119 245.529C175.449 246.181 176.898 246.365 178.299 246.075C179.703 245.783 181.038 245.019 182.124 243.831L182.124 243.831L284.791 131.526C284.791 131.526 284.791 131.526 284.791 131.525C285.541 130.704 286.15 129.704 286.569 128.579C286.989 127.454 287.208 126.236 287.208 125C287.208 123.764 286.989 122.546 286.569 121.42C286.15 120.296 285.541 119.295 284.791 118.474C284.791 118.474 284.791 118.474 284.791 118.474L182.124 6.16931L182.124 6.16904C181.038 4.98114 179.703 4.21664 178.299 3.92537C176.898 3.63478 175.449 3.81854 174.119 4.4706C172.784 5.12497 171.607 6.2341 170.763 7.69841C169.919 9.16382 169.459 10.9019 169.459 12.6949L169.459 66.0197V67.8745L167.605 67.8103C154.327 67.3504 146.066 65.4257 139.082 62.0972C133.811 59.5846 129.286 56.2657 123.968 52.3649C122.347 51.1758 120.652 49.9326 118.84 48.6418C110.907 42.99 107.614 35.4223 105.667 28.529C105.053 26.3572 104.552 24.1615 104.091 22.1422C103.837 21.0284 103.595 19.9681 103.353 18.9951C102.641 16.1305 101.91 13.9161 100.853 12.3659C100.442 11.7623 99.9324 11.3377 99.2703 10.931C98.9286 10.7211 98.5606 10.5244 98.1354 10.3018C98.0839 10.2749 98.0314 10.2475 97.9781 10.2196Z" stroke="white" stroke-width="3.58332"/>
</g>
<defs>
<filter id="filter0_f_579_2995" x="0.805562" y="0.805562" width="289.389" height="248.389" filterUnits="userSpaceOnUse" color-interpolation-filters="sRGB">
<feFlood flood-opacity="0" result="BackgroundImageFix"/>
<feBlend mode="normal" in="SourceGraphic" in2="BackgroundImageFix" result="shape"/>
<feGaussianBlur stdDeviation="0.597219" result="effect1_foregroundBlur_579_2995"/>
</filter>
</defs>
</svg>
